<svg width="272" height="55" viewBox="0 0 272 55" fill="none" xmlns="http://www.w3.org/2000/svg">
<path d="M125.617 27.7153V42.6326H121.22V28.7931C121.22 26.6188 120.593 24.76 119.438 23.4371C118.278 22.1078 116.618 21.3598 114.646 21.3598C112.236 21.3598 110.181 22.1753 108.738 23.8816C107.305 25.5761 106.53 28.084 106.53 31.3676V42.6326H102.175V18.1447H106.53V20.7821V22.1625L107.414 21.1023C109.366 18.761 112.206 17.4263 115.881 17.4263C118.814 17.4263 121.237 18.4826 122.929 20.2751C124.624 22.0702 125.617 24.6386 125.617 27.7153Z" fill="#05223F" stroke="#05223F"/>
<path d="M156.519 31.1729H136.335H135.778L135.838 31.7265C136.373 36.6948 140.022 39.7289 144.053 39.7289C145.513 39.7289 147.027 39.5179 148.421 38.8155C149.737 38.1526 150.914 37.0678 151.834 35.3786L155.67 36.1973C153.558 40.9655 149.348 43.3511 144.065 43.3511C137.382 43.3511 131.546 38.2259 131.546 30.4396C131.546 22.6506 137.313 17.4263 144.239 17.4263C150.807 17.4263 156.254 22.4405 156.506 29.8338L156.519 31.1729ZM135.995 27.7885L135.872 28.389H136.485H151.519H152.127L152.009 27.7921C151.576 25.5982 150.583 23.9332 149.205 22.8183C147.83 21.7057 146.108 21.169 144.261 21.1682C142.327 21.1359 140.443 21.7793 138.933 22.9873C137.423 24.1963 136.384 25.8947 135.995 27.7885Z" fill="#05223F" stroke="#05223F"/>
<path d="M170.687 33.6421L164.15 42.6325H159.006L167.585 30.9389L167.797 30.6495L167.591 30.3558L158.98 18.0908H164.143L170.68 27.5388L171.091 28.1328L171.502 27.539L178.046 18.0908H183.256L174.646 30.3558L174.44 30.6495L174.652 30.9389L183.231 42.6325H178.038L171.496 33.6419L171.091 33.0861L170.687 33.6421Z" fill="#05223F" stroke="#05223F"/>
<path d="M234.036 38.4195C235.351 37.7566 236.528 36.672 237.448 34.983L241.284 35.8065C239.172 40.5701 234.962 42.961 229.679 42.961C222.997 42.961 217.16 37.8301 217.16 30.0495C217.16 22.2669 222.927 17.0303 229.883 17.0303C236.45 17.0303 241.896 22.0484 242.15 29.4397L242.141 30.7829H221.949H221.392L221.452 31.3366C221.988 36.2993 225.643 39.3329 229.667 39.3329C231.127 39.3329 232.641 39.1219 234.036 38.4195ZM221.609 27.3805L221.486 27.981H222.099H237.133H237.741L237.623 27.3841C237.19 25.1903 236.197 23.5252 234.819 22.4103C233.445 21.2977 231.722 20.761 229.875 20.7602C227.941 20.7279 226.057 21.3713 224.548 22.5793C223.037 23.7883 221.998 25.4867 221.609 27.3805Z" fill="#05223F" stroke="#05223F"/>
<path d="M271.5 27.7153V42.6326H267.103V28.7931C267.103 26.6188 266.476 24.76 265.321 23.4371C264.16 22.1078 262.5 21.3598 260.528 21.3598C258.119 21.3598 256.064 22.1753 254.62 23.8816C253.187 25.5761 252.412 28.084 252.412 31.3676V42.6326H248.075V18.1447H252.43V20.7821V22.1625L253.314 21.1023C255.267 18.761 258.106 17.4263 261.781 17.4263C264.708 17.4263 267.127 18.4823 268.816 20.2748C270.508 22.0699 271.5 24.6383 271.5 27.7153Z" fill="#05223F" stroke="#05223F"/>
<path d="M207.033 20.1653V18.1447H211.232V40.546V40.8454C211.232 44.5287 209.966 47.392 207.778 49.3398C205.583 51.2943 202.405 52.3738 198.503 52.3738H198.455C195.179 52.3738 192.42 51.6059 190.327 50.1994C188.406 48.9089 187.022 47.0661 186.308 44.7282H191.098C192.526 47.1721 195.148 48.5421 198.455 48.5421H198.503C201.028 48.5421 203.17 47.75 204.683 46.2678C206.197 44.7841 207.033 42.6562 207.033 40.079V39.8635V38.4744V37.224L206.171 38.1297C204.335 40.0581 201.55 41.1595 197.731 41.1597C194.562 41.1537 191.525 39.9 189.277 37.6711C187.03 35.4427 185.754 32.4195 185.727 29.2579C185.728 22.466 191.45 17.4741 197.73 17.4741C201.549 17.4741 204.334 18.5755 206.17 20.5096L207.033 21.4184V20.1653ZM189.926 29.2361C189.926 34.2496 193.793 37.5195 198.605 37.5195C203.018 37.5195 207.033 34.3018 207.033 29.2361C207.033 24.1713 203.043 20.9526 198.605 20.9526C193.786 20.9526 189.926 24.2228 189.926 29.2361Z" fill="#05223F" stroke="#05223F"/>
<path d="M28.7842 1.93988L0 46.4792H14.4401L39.0626 8.3762L52.0815 28.5893L59.1097 17.7104L48.9692 1.94586C48.5846 1.3498 48.0565 0.859434 47.4332 0.519529C46.81 0.179624 46.1113 0.00100811 45.4011 0H32.3463C31.6375 0.000272972 30.94 0.177982 30.3178 0.51687C29.6955 0.855758 29.1682 1.34501 28.7842 1.93988Z" fill="#005EEB"/>
<path d="M62.2763 52.8797L91.0606 8.34033H76.6264L52.0039 46.4493L38.9851 26.2363L31.9629 37.1092L42.1033 52.8737C42.4876 53.4701 43.0156 53.9608 43.6389 54.3008C44.2623 54.6407 44.9611 54.8191 45.6714 54.8196H58.7262C59.433 54.8173 60.128 54.6386 60.7481 54.2998C61.3681 53.961 61.8934 53.4728 62.2763 52.8797Z" fill="#005EEB"/>
</svg>
