<svg width="272" height="55" viewBox="0 0 272 55" fill="none" xmlns="http://www.w3.org/2000/svg">
<path d="M126.117 27.7153V43.1326H120.72V28.7931C120.72 24.6319 118.322 21.8598 114.646 21.8598C110.064 21.8598 107.03 24.9432 107.03 31.3676V43.1326H101.675V17.6447H107.03V20.7821C109.087 18.3153 112.073 16.9263 115.881 16.9263C121.998 16.9263 126.117 21.3449 126.117 27.7153Z" fill="white"/>
<path d="M157.024 31.6729H136.335C136.845 36.4029 140.293 39.2289 144.053 39.2289C146.883 39.2289 149.768 38.4086 151.567 34.8103L156.364 35.8341C154.253 41.1807 149.726 43.8511 144.065 43.8511C137.115 43.8511 131.046 38.5104 131.046 30.4396C131.046 22.3687 137.043 16.9263 144.239 16.9263C151.087 16.9263 156.748 22.1651 157.006 29.8229L157.024 31.6729ZM136.485 27.889H151.519C150.691 23.6979 147.759 21.6682 144.257 21.6682C142.438 21.6368 140.665 22.2416 139.246 23.3777C137.827 24.5137 136.85 26.1096 136.485 27.889Z" fill="white"/>
<path d="M184.218 43.1325H177.784L171.091 33.9361L164.405 43.1325H158.019L167.182 30.6431L158.019 17.5908H164.405L171.091 27.2543L177.784 17.5908H184.218L175.055 30.6431L184.218 43.1325Z" fill="white"/>
<path d="M242.638 31.2829H221.949C222.459 36.0069 225.913 38.8329 229.667 38.8329C232.497 38.8329 235.382 38.0126 237.181 34.4143L241.978 35.4441C239.867 40.7847 235.34 43.461 229.679 43.461C222.729 43.461 216.66 38.1144 216.66 30.0495C216.66 21.9847 222.657 16.5303 229.883 16.5303C236.731 16.5303 242.392 21.7751 242.65 29.4328L242.638 31.2829ZM222.099 27.481H237.133C236.305 23.2899 233.373 21.2602 229.871 21.2602C228.052 21.2289 226.279 21.8336 224.86 22.9697C223.441 24.1058 222.464 25.7017 222.099 27.481Z" fill="white"/>
<path d="M272 27.7153V43.1326H266.603V28.7931C266.603 24.6319 264.204 21.8598 260.528 21.8598C255.947 21.8598 252.912 24.9432 252.912 31.3676V43.1326H247.575V17.6447H252.93V20.7821C254.987 18.3153 257.974 16.9263 261.781 16.9263C267.886 16.9263 272 21.3449 272 27.7153Z" fill="white"/>
<path d="M206.533 17.6447V20.1653C204.578 18.1057 201.646 16.9741 197.73 16.9741C191.199 16.9741 185.227 22.1651 185.227 29.26C185.255 32.5543 186.584 35.7044 188.925 38.0261C191.266 40.3478 194.43 41.6535 197.73 41.6597C201.646 41.6597 204.578 40.5281 206.533 38.4744V39.8635V40.079C206.533 45.0125 203.343 48.0421 198.503 48.0421H198.455C195.181 48.0421 192.68 46.6471 191.391 44.2282H185.652C187.008 49.7305 191.751 52.8738 198.455 52.8738H198.503C206.485 52.8738 211.732 48.4552 211.732 40.8454V40.546V17.6447H206.533ZM198.605 37.0195C194.03 37.0195 190.426 33.9361 190.426 29.2361C190.426 24.5361 194.024 21.4526 198.605 21.4526C202.803 21.4526 206.533 24.4822 206.533 29.2361C206.533 33.99 202.779 37.0195 198.605 37.0195Z" fill="white"/>
<path d="M28.7842 1.93988L0 46.4792H14.4401L39.0626 8.3762L52.0815 28.5893L59.1097 17.7104L48.9692 1.94586C48.5846 1.3498 48.0565 0.859434 47.4332 0.519529C46.81 0.179624 46.1113 0.00100811 45.4011 0H32.3463C31.6375 0.000272972 30.94 0.177982 30.3178 0.51687C29.6955 0.855758 29.1682 1.34501 28.7842 1.93988Z" fill="#005EEB"/>
<path d="M62.2763 52.8797L91.0606 8.34033H76.6264L52.0039 46.4493L38.9851 26.2363L31.9629 37.1092L42.1033 52.8737C42.4876 53.4701 43.0156 53.9608 43.6389 54.3008C44.2623 54.6407 44.9611 54.8191 45.6714 54.8196H58.7262C59.433 54.8173 60.128 54.6386 60.7481 54.2998C61.3681 53.961 61.8934 53.4728 62.2763 52.8797Z" fill="#005EEB"/>
</svg>
