<svg width="1440" height="1000" viewBox="0 0 1440 1000" fill="none" xmlns="http://www.w3.org/2000/svg">
<rect width="1440" height="1000" fill="#05223F"/>
<g clip-path="url(#clip0_1072_885)">
<path d="M-1136.09 4111.94L1216.42 400.218C1247.68 350.845 1290.56 310.212 1341.17 282.013C1391.78 253.815 1448.51 238.944 1506.2 238.755L2573.38 238.755C2631.36 238.794 2688.41 253.641 2739.29 281.936C2790.17 310.231 2833.27 351.07 2864.64 400.716L3693.41 1714.47L3119.97 2619.82L2056.15 935.671L2055.73 935.002L2055.3 935.67L42.6558 4111.94L-1136.09 4111.94Z" stroke="#005EEB"/>
<path d="M3059.04 -3532.57L706.531 179.145C675.275 228.517 632.392 269.15 581.782 297.349C531.172 325.548 474.44 340.419 416.749 340.608L-650.433 340.608C-708.411 340.569 -765.454 325.722 -816.337 297.427C-867.221 269.131 -910.319 228.293 -941.685 178.647L-1770.46 -1135.1L-1197.02 -2040.46L-133.196 -356.308L-132.774 -355.64L-132.351 -356.307L1880.3 -3532.57H3059.04Z" stroke="#005EEB"/>
</g>
<defs>
<clipPath id="clip0_1072_885">
<rect width="1440" height="1000" fill="white"/>
</clipPath>
</defs>
</svg>
